<?xml version="1.0" encoding="UTF-8" standalone="no"?>
<svg
   xmlns:dc="http://purl.org/dc/elements/1.1/"
   xmlns:cc="http://creativecommons.org/ns#"
   xmlns:rdf="http://www.w3.org/1999/02/22-rdf-syntax-ns#"
   xmlns:svg="http://www.w3.org/2000/svg"
   xmlns="http://www.w3.org/2000/svg"
   xmlns:sodipodi="http://sodipodi.sourceforge.net/DTD/sodipodi-0.dtd"
   xmlns:inkscape="http://www.inkscape.org/namespaces/inkscape"
   viewBox="0 0 10964.48 10964.48"
   version="1.1"
   id="svg18"
   sodipodi:docname="cheese.svg"
   width="1040.8657"
   height="1040.8657"
   inkscape:version="0.92.1 15371">
  <metadata
     id="metadata24">
    <rdf:RDF>
      <cc:Work
         rdf:about="">
        <dc:format>image/svg+xml</dc:format>
        <dc:type
           rdf:resource="http://purl.org/dc/dcmitype/StillImage" />
        <dc:title></dc:title>
      </cc:Work>
    </rdf:RDF>
  </metadata>
  <defs
     id="defs22" />
  <sodipodi:namedview
     pagecolor="#ffffff"
     bordercolor="#666666"
     borderopacity="1"
     objecttolerance="10"
     gridtolerance="10"
     guidetolerance="10"
     inkscape:pageopacity="0"
     inkscape:pageshadow="2"
     inkscape:window-width="1301"
     inkscape:window-height="744"
     id="namedview20"
     showgrid="false"
     fit-margin-top="0"
     fit-margin-left="0"
     fit-margin-right="0"
     fit-margin-bottom="0"
     inkscape:zoom="0.32700284"
     inkscape:cx="-327.58816"
     inkscape:cy="538.21708"
     inkscape:window-x="65"
     inkscape:window-y="24"
     inkscape:window-maximized="1"
     inkscape:current-layer="svg18"
     showguides="true"
     inkscape:guide-bbox="true">
    <sodipodi:guide
       position="24011.851,15469.478"
       orientation="0,1"
       id="guide1558"
       inkscape:locked="false" />
  </sodipodi:namedview>
  <path
     d="m 2322.24,215.23999 h 6320 l 108,3 107,8 105,13 103,19 102,24 100,28 98,33 95,38 93,43 91,46 88,51 86,55 83,59 79,63 77,66 73,70 70,73 66,77 63,79.00001 59,83 55,86 51,88 46,91 43,93 38,95 33,98 28,100 24,102 19,103 13,105 8,107 3,108 v 6320 l -3,108 -8,107 -13,105 -19,104 -24,101 -28,100 -33,98 -38,95 -43,94 -46,91 -51,88 -55,85 -59,83 -63,80 -66,76 -70,73 -73,70 -77,67 -79,62 -83,59 -86,55 -88,51 -91,47 -93,42 -95,38 -98,33 -100,29 -102,23 -103,19 -105,13 -107,9 -108,2 h -6320 l -108,-2 -107,-9 -105,-13 -103,-19 -102,-23 -100,-29 -98,-33 -95,-38 -94,-42 -90,-47 -89,-51 -85,-55 -83,-59 -79.00001,-62 -77,-67 -73,-70 -70,-73 -66,-76 -63,-80 -59,-83 -55,-85 -51,-88 -46,-91 -43,-94 -38,-95 -33,-98 -28,-100 -24,-101 -19,-104 -13,-105 -8,-107 -3,-108 v -6320 l 3,-108 8,-107 13,-105 19,-103 24,-102 28,-100 33,-98 38,-95 43,-93 46,-91 51,-88 55,-86 59,-83 63,-79.00001 66,-77 70,-73 73,-70 77,-66 79.00001,-63 83,-59 85,-55 89,-51 90,-46 94,-43 95,-38 98,-33 100,-28 102,-24 103,-19 105,-13 107,-8 z"
     id="path6095"
     inkscape:connector-curvature="0"
     style="fill:#1f1a17;stroke:#ffffff;stroke-width:430.47998047;stroke-miterlimit:4;stroke-dasharray:none;stroke-opacity:1" />
  <path
     d="m 3001.24,3112.24 74,5 222,9 148,4 74,1 75,1 h 74 l 74,-1 h 74 l 75,-2 148,-4 149,-6 148,-8 148,-10 148,-11 147,-14 147,-15 147,-16 292,-38 1867,633 1113,350 -335,-43 -333,-44 -332,-45 -333,-45 -331,-47 -332,-48 -331,-49 -498,-78 -166,-27 -167,-28 -166,-28 -334,-58 -167,-30 -167,-31 -336,-64 -168,-34 -338,-68 -170,-36 -170,-37 z"
     id="path6097"
     inkscape:connector-curvature="0"
     style="fill:#f3ae00" />
  <path
     d="m 7598.24,6995.24 -45,7 -42,9 -41,10 -39,11 -36,12 -35,13 -32,13 -30,14 -28,15 -25,15 -22,17 -20,16 -17,17 -14,18 -11,18 -8,18 -5,19 -1,19 2,19 5,19 8,19 13,20 16,19 19,19 24,20 28,19 31,19 36,18 40,19 44,17 49,18 54,17 54,16 52,15 49,13 48,12 45,10 43,9 40,8 39,7 37,5 35,4 33,3 31,3 30,1 h 28 l 26,-1 25,-1 24,-3 22,-3 21,-3 20,-5 18,-5 18,-6 32,-12 14,-7 14,-8 26,-16 23,-16 21,-18 10,-9 9,-9 9,-10 16,-20 7,-11 7,-10 5,-11 6,-12 4,-11 4,-12 4,-11 3,-12 2,-12 3,-36 -2,-24 -4,-24 -8,-24 -4,-11 -6,-12 -12,-22 -8,-11 -8,-10 -9,-10 -10,-10 -11,-10 -23,-19 -25,-20 -27,-21 -30,-20 -34,-20 -18,-10 -18,-9 -40,-18 -22,-8 -23,-8 -23,-7 -25,-7 -26,-6 -27,-5 -28,-5 -30,-4 -31,-3 -32,-2 -34,-1 h -71 l -38,2 -40,3 -41,4 -43,6 z m -3281,-554 19,-15 17,-15 17,-16 30,-32 14,-16 12,-16 12,-17 10,-16 10,-17 8,-17 14,-34 5,-17 3,-18 3,-17 1,-17 v -18 l -1,-17 -2,-18 -4,-17 -5,-18 -6,-17 -8,-18 -9,-17 -11,-17 -11,-18 -14,-17 -15,-17 -16,-17 -18,-17 -19,-17 -21,-16 -23,-16 -24,-15 -25,-14 -27,-13 -56,-24 -30,-11 -31,-10 -31,-9 -32,-8 -32,-7 -66,-12 -33,-4 -66,-6 -33,-1 h -66 l -32,2 -31,3 -31,4 -30,5 -29,6 -28,7 -28,9 -50,20 -23,12 -22,14 -20,14 -19,16 -17,16 -17,17 -15,17 -15,18 -13,19 -12,19 -11,19 -10,20 -9,20 -8,20 -6,21 -5,21 -4,21 -3,21 -2,22 v 21 l 1,22 2,21 4,21 5,21 6,21 7,21 9,21 10,20 12,20 13,20 14,19 16,19 17,18 18,18 20,17 22,16 22,15 25,14 25,12 26,12 28,10 28,9 29,8 30,7 31,5 30,5 64,6 32,1 h 64 l 32,-2 64,-6 31,-5 31,-6 30,-6 30,-7 29,-9 28,-9 27,-10 26,-11 25,-11 24,-13 23,-13 21,-14 z m 2427,-342 -26,-24 -24,-25 -22,-25 -21,-26 -18,-26 -17,-27 -15,-26 -13,-27 -11,-27 -9,-27 -7,-27 -5,-27 -4,-27 -1,-26 v -26 l 3,-26 4,-25 6,-25 8,-24 11,-24 12,-22 14,-22 16,-21 18,-20 21,-19 22,-18 24,-16 26,-16 28,-14 31,-13 32,-11 34,-10 24,-5 23,-5 23,-4 44,-4 h 22 l 21,1 21,2 21,3 20,5 20,6 19,7 20,9 19,10 19,11 18,13 18,15 19,16 17,18 18,20 18,21 17,23 17,25 17,26 17,29 17,30 17,33 16,34 17,36 16,39 17,40 16,43 14,42 9,39 5,37 v 33 l -4,30 -8,28 -12,25 -15,23 -18,20 -20,18 -24,15 -26,13 -28,11 -29,9 -32,6 -32,5 -34,3 -35,1 -35,-1 -36,-2 -36,-4 -35,-6 -36,-7 -34,-8 -34,-10 -33,-11 -31,-12 -29,-13 -28,-14 -25,-15 -23,-16 z m -1247,-499 -43,4 -42,3 h -40 l -38,-1 -36,-2 -35,-5 -33,-6 -32,-8 -30,-9 -28,-10 -26,-12 -25,-13 -24,-14 -22,-16 -20,-16 -19,-18 -17,-19 -16,-19 -14,-21 -13,-21 -11,-22 -10,-23 -9,-23 -7,-24 -6,-24 -4,-25 -3,-25 -2,-26 v -25 l 1,-26 2,-26 4,-27 5,-26 6,-26 7,-26 9,-26 9,-25 11,-25 12,-25 13,-25 15,-24 15,-23 17,-23 17,-22 19,-22 40,-40 22,-19 23,-18 23,-17 25,-16 26,-15 26,-14 27,-12 29,-11 29,-9 30,-9 31,-6 31,-5 33,-4 33,-1 h 34 l 35,1 35,4 19,3 19,5 19,6 19,7 19,9 18,10 19,10 19,12 18,13 18,14 17,15 34,32 16,17 16,18 16,19 14,18 14,20 14,19 24,40 11,21 11,20 9,21 8,21 8,20 6,21 6,20 4,20 3,20 2,19 v 37 l -1,20 -4,38 -3,20 -4,19 -5,20 -6,20 -6,19 -8,20 -8,19 -20,38 -12,18 -13,19 -13,17 -15,18 -17,17 -17,16 -19,16 -20,15 -44,28 -25,13 -25,12 -27,11 -29,11 -30,9 -32,9 -34,7 -35,6 z m 421,1258 -38,4 -35,3 -34,1 -31,-2 -29,-2 -27,-5 -25,-6 -23,-7 -22,-9 -19,-10 -17,-11 -15,-13 -13,-14 -12,-14 -9,-16 -7,-16 -6,-18 -4,-18 -2,-18 1,-20 1,-19 4,-21 6,-20 7,-21 9,-21 11,-21 13,-22 15,-21 16,-21 18,-21 20,-21 21,-21 14,-10 14,-9 14,-6 16,-4 16,-3 17,-1 18,1 18,2 18,4 18,5 19,6 19,7 18,9 19,9 18,10 36,22 17,12 16,12 16,13 15,13 28,26 12,13 11,12 10,13 9,12 7,11 6,11 5,10 2,10 1,9 v 16 l -2,17 -3,17 -5,18 -6,17 -8,17 -10,16 -11,16 -14,16 -7,7 -9,7 -8,7 -30,18 -11,6 -12,5 -13,5 -13,4 -28,8 -15,3 z m 1705,-1539 23,2 h 20 l 18,-3 15,-5 12,-7 10,-10 7,-12 6,-13 3,-15 1,-17 v -18 l -2,-19 -3,-20 -5,-21 -6,-22 -8,-23 -8,-22 -9,-23 -11,-23 -10,-23 -12,-23 -11,-22 -13,-22 -12,-21 -24,-40 -24,-35 -12,-15 -10,-14 -10,-11 -10,-10 -30,-29 -29,-24 -29,-22 -27,-17 -27,-15 -25,-11 -24,-8 -24,-6 -22,-2 -21,-1 -20,2 -19,4 -18,7 -17,8 -15,10 -15,11 -13,13 -12,14 -11,15 -10,16 -9,17 -8,17 -6,18 -5,18 -4,18 -4,36 v 17 l 1,17 3,17 3,15 5,15 6,13 7,14 16,28 9,14 10,13 11,14 11,13 24,26 14,13 14,12 14,13 15,12 16,11 16,12 17,11 18,11 18,10 38,20 20,10 20,8 21,9 21,8 22,8 22,7 22,6 24,6 23,6 24,4 z m -5190,-864 -1,-22 v -24 l 2,-25 2,-26 5,-26 5,-27 8,-26 9,-27 12,-26 13,-26 16,-25 18,-24 20,-23 23,-22 26,-20 29,-18 32,-17 34,-14 38,-12 42,-10 44,-6 49,-4 h 52 l 56,3 60,6 64,10 68,15 73,18 77,23 82,28 86,33 92,37 48,22 45,23 41,25 39,26 35,26 32,28 29,28 25,28 22,30 18,29 15,30 12,30 8,29 4,30 1,29 -3,29 -7,28 -10,28 -14,27 -18,26 -22,24 -25,24 -29,22 -34,21 -37,19 -41,18 -45,16 -50,13 -53,12 -58,9 -61,7 -66,5 -66,3 h -124 l -58,-3 -55,-4 -52,-5 -49,-7 -46,-8 -44,-9 -42,-11 -39,-12 -36,-12 -35,-14 -32,-15 -30,-16 -27,-17 -26,-17 -23,-18 -22,-19 -20,-19 -18,-20 -16,-21 -14,-21 -13,-21 -11,-22 -10,-22 -8,-22 -7,-22 -5,-23 -4,-22 -3,-22 z m 2232,2918 27,3 h 28 l 27,-1 28,-3 27,-5 27,-6 27,-8 27,-10 26,-11 25,-12 25,-14 24,-15 23,-17 22,-17 22,-19 19,-20 19,-21 17,-22 16,-23 14,-23 13,-25 11,-25 9,-26 7,-26 5,-27 2,-28 1,-28 -2,-28 -4,-29 -7,-29 -9,-29 -13,-29 -20,-40 -23,-35 -24,-31 -25,-26 -27,-23 -29,-19 -29,-15 -30,-11 -31,-9 -32,-5 -32,-2 h -32 l -32,3 -33,6 -32,8 -32,9 -31,12 -31,13 -30,15 -28,16 -28,17 -26,18 -25,19 -23,19 -22,20 -19,20 -18,20 -15,20 -12,19 -10,19 -8,19 -4,17 -3,18 -2,17 -2,18 -1,19 v 37 l 2,38 2,19 3,18 8,38 6,18 6,19 7,17 8,18 9,17 10,17 10,16 12,15 13,15 14,14 16,14 16,12 18,12 18,11 20,10 22,9 22,8 24,6 25,6 z m -2339,-4041 121,17 122,18 122,19 122,18 123,20 248,40 123,21 125,21 248,42 125,22 124,22 124,21 248,44 122,21 122,22 242,42 120,21 120,20 119,21 119,20 118,19 234,38 230,36 114,17 113,16 112,16 74,10 146,20 72,9 72,10 72,9 213,27 70,8 70,9 69,8 70,8 69,8 68,8 69,8 67,8 68,7 67,7 68,8 268,28 67,6 66,7 67,6 67,7 67,6 66,6 67,6 67,7 -11,22 -10,23 -9,24 -7,25 -6,25 -4,26 -2,26 -1,27 1,27 2,26 4,26 5,26 7,26 8,26 10,25 11,25 12,24 13,24 15,24 15,23 17,22 18,22 19,21 20,20 21,20 22,19 23,19 23,17 25,17 25,15 26,15 27,14 27,13 56,22 29,10 30,8 30,7 30,6 31,5 50,4 24,1 h 24 l -5,52 -4,53 -5,52 -8,104 -3,53 -6,104 -3,53 -2,52 -4,106 -1,52 -2,53 -1,52 v 53 l -22,-12 -44,-22 -22,-10 -46,-20 -23,-9 -24,-8 -23,-8 -48,-14 -25,-6 -48,-10 -25,-4 -24,-3 -37,-4 -36,-2 -35,-2 h -34 l -34,1 -33,2 -64,8 -30,5 -30,7 -28,7 -28,8 -27,10 -25,10 -25,11 -23,11 -44,26 -19,14 -19,15 -17,15 -16,16 -15,17 -13,17 -12,18 -10,18 -9,19 -8,19 -5,20 -4,20 -3,20 -1,20 1,22 4,21 5,23 8,23 10,23 12,24 14,23 15,24 17,25 19,24 21,24 22,24 23,23 25,24 27,23 27,22 29,23 29,21 31,21 31,20 33,19 33,18 34,18 34,16 35,15 36,14 36,12 36,11 37,10 36,8 37,7 37,4 39,4 38,2 h 37 l 36,-1 35,-3 35,-4 33,-5 33,-6 4,80 6,81 5,80 7,81 6,80 8,81 7,80 8,81 8,80 18,162 10,80 20,162 11,80 11,81 -398,-36 -201,-18 -200,-19 -404,-36 -203,-18 -204,-19 -204,-18 -205,-19 -206,-18 -414,-38 -208,-19 -418,-38 -216,-19 -217,-20 -218,-19 -219,-20 -440,-40 -221,-20 -444,-40 -224,-21 -224,-20 -226,-20 -226,-21 -226,-20 -228,-21 -229,-21 -26,-2 -26,-4 -25,-5 -25,-6 -25,-7 -24,-7 -24,-9 -23,-9 -23,-10 -22,-11 -42,-24 -20,-13 -38,-28 -18,-15 -16,-16 -17,-16 -15,-17 -14,-17 -13,-17 -13,-18 -11,-19 -10,-18 -10,-20 -8,-19 -7,-20 -10,-40 -3,-20 -2,-21 -1,-21 v -3226 l 1,-20 2,-20 3,-20 10,-38 7,-18 8,-18 10,-17 10,-16 11,-16 26,-30 14,-14 15,-13 17,-12 16,-12 18,-11 19,-10 19,-9 20,-9 21,-8 21,-6 22,-6 23,-5 23,-4 48,-6 25,-1 h 25 l 25,1 26,2 z"
     id="path6099"
     inkscape:connector-curvature="0"
     style="fill:#fadd85" />
  <path
     style="fill:none;stroke:#000000;stroke-width:1px;stroke-linecap:butt;stroke-linejoin:miter;stroke-opacity:1"
     d="M 1685.6292,-6110.9803 H -11263.523 l -6602.455,-1769.1224"
     id="path1480"
     inkscape:connector-curvature="0" />
</svg>
