<?xml version="1.0" encoding="UTF-8" standalone="no"?>
<svg
   xmlns:dc="http://purl.org/dc/elements/1.1/"
   xmlns:cc="http://creativecommons.org/ns#"
   xmlns:rdf="http://www.w3.org/1999/02/22-rdf-syntax-ns#"
   xmlns:svg="http://www.w3.org/2000/svg"
   xmlns="http://www.w3.org/2000/svg"
   xmlns:sodipodi="http://sodipodi.sourceforge.net/DTD/sodipodi-0.dtd"
   xmlns:inkscape="http://www.inkscape.org/namespaces/inkscape"
   viewBox="0 0 10992.479 10992.48"
   version="1.1"
   id="svg18"
   sodipodi:docname="milk.svg"
   width="1021.4161"
   height="1021.4161"
   inkscape:version="0.92.1 15371">
  <metadata
     id="metadata24">
    <rdf:RDF>
      <cc:Work
         rdf:about="">
        <dc:format>image/svg+xml</dc:format>
        <dc:type
           rdf:resource="http://purl.org/dc/dcmitype/StillImage" />
        <dc:title></dc:title>
      </cc:Work>
    </rdf:RDF>
  </metadata>
  <defs
     id="defs22" />
  <sodipodi:namedview
     pagecolor="#ffffff"
     bordercolor="#666666"
     borderopacity="1"
     objecttolerance="10"
     gridtolerance="10"
     guidetolerance="10"
     inkscape:pageopacity="0"
     inkscape:pageshadow="2"
     inkscape:window-width="1301"
     inkscape:window-height="744"
     id="namedview20"
     showgrid="false"
     fit-margin-top="0"
     fit-margin-left="0"
     fit-margin-right="0"
     fit-margin-bottom="0"
     inkscape:zoom="0.57758091"
     inkscape:cx="1061.3018"
     inkscape:cy="510.70807"
     inkscape:window-x="65"
     inkscape:window-y="24"
     inkscape:window-maximized="1"
     inkscape:current-layer="svg18" />
  <path
     d="m 2327.24,215.23999 h 6337.999 l 108,3 107,8 105,13 104,19 102,24 100,28 98,34 96,38 93,42 91,47 89,51 86,55 82,59 80,63 77,66 73,71 71,73 66,77 63,80.00001 59,82 55,86 51,89.0001 47,91 42,93 38,96 34,98 28,100 24,102 19,104 13,105 8,106.9997 3,108 v 6338 l -3,108 -8,107 -13,105 -19,104 -24,102 -28,100 -34,98 -38,96 -42,94 -47,91 -51,88 -55,86 -59,83 -63,80.0002 -66,76 -71,74 -73,70 -77,66 -80,63 -82,59 -86,55 -89,51 -91,47 -93,43 -96,38 -98,33 -100,28 -102,24 -104,19 -105,13 -107,8 -108,3 H 2327.24 l -108,-3 -107,-8 -105,-13 -104,-19 -102,-24 -100,-28 -98,-33 -96,-38 -93,-43 -91,-47 -89,-51 -86,-55 -82,-59 -80.00001,-63 -77,-66 -73,-70 -71,-74 -66,-76 -63,-80.0002 -59,-83 -55,-86 -51,-88 -47,-91 -42,-94 -38,-96 -34,-98 -28,-100 -24,-102 -19,-104 -13,-105 -8,-107 -3,-108 v -6338 l 3,-108 8,-106.9997 13,-105 19,-104 24,-102 28,-100 34,-98 38,-96 42,-93 47,-91 51,-89.0001 55,-86 59,-82 63,-80.00001 66,-77 71,-73 73,-71 77,-66 80.00001,-63 82,-59 86,-55 89,-51 91,-47 93,-42 96,-38 98,-34 100,-28 102,-24 104,-19 105,-13 107,-8 z"
     id="path4"
     inkscape:connector-curvature="0"
     style="fill:#1f1a17;stroke:#ffffff;stroke-width:430.47998047;stroke-miterlimit:4;stroke-dasharray:none;stroke-opacity:1" />
  <path
     d="m 3823.24,9335.2398 h 2547 v -6309 h -2547 z m 2778,-142 369,-499 v -5775 l -369,177 z m -2188,-7534.9997 1776,-1 474,316 339,-47 -269,-239 555,198 -677,861.9997 -537,-898.9997 296,1178.9997 h -2547 z"
     id="path6"
     inkscape:connector-curvature="0"
     style="fill:#ffffff" />
  <path
     d="m 6601.24,9193.2398 369,-499 v -1029 l -26,24 -22,24 -21,26 -18,27 -17,29 -14,29 -13,30 -11,30 -10,32 -9,32 -14,64 -12,65 -10,66 -9,64 -11,61 -6,30 -6,29 -8,29 -8,27 -10,26 -11,24 -12,23 -15,22 -15,20 -18,19 -20,16 -23,15 z"
     id="path8"
     inkscape:connector-curvature="0"
     style="fill:#007cc3" />
  <path
     d="m 3822.24,3761.2398 145,-37 133,-24 122,-13 h 111 l 101,9 91,20 84,29 76,36 69,45 63,51 58,57 54,63 51,66 48,71 46,73 90,152 45,77 47,77 49,76 53,75 56,71 61,69 66,64 73,59 79,54 88,47 97,40 106,32 116,23 128,14 140,3 v 1155 l -190,-123 -169,-101 -150,-78 -132,-59 -116,-39 -100,-22 -86,-6 -74,8 -63,22 -53,34 -45,45 -38,53 -31,62 -28,67 -24,73 -23,76 -22,78 -23,79 -26,79 -29,76 -34,73 -40,68 -48,62 -58,55 -67,45 -80,35 -92,23 -107,11 -123,-5 -139,-20 -158,-38 -178,-56 z"
     id="path12"
     inkscape:connector-curvature="0"
     style="fill:#033ea4;fill-opacity:1" />
  <path
     d="m 6368.24,9329.2398 h -2546 v -1272 l 147,-70 140,-57 133,-46 127,-35 120,-25 115,-15 109,-6 103,3 99,10 93,16 89,23 84,29 81,33 77,38 73,42 69,44 67,46 64,48 62,49 59,50 113,96 107,89 52,40 52,37 51,32 51,27 51,21 52,14 53,8 53,-1 z"
     id="path14"
     inkscape:connector-curvature="0"
     style="fill:#033ea4;fill-opacity:1" />
  <path
     d="m 6596.24,5204.2398 46,-33 38,-30 32,-26 26,-24 22,-21 17,-18 16,-17 13,-17 13,-15 12,-15 14,-16 16,-16 19,-18 23,-20 27,-22 34,-24 v 1447 l -9,25 -10,25 -11,24 -11,22 -7,11 -6,10 -7,9 -8,9 -7,8 -9,7 -18,12 -10,4 -11,3 -12,3 -12,1 -13,-1 -14,-1 -15,-3 -15,-4 -17,-6 -18,-7 -38,-19 -21,-13 -22,-14 -23,-16 -24,-17 z"
     id="path16"
     inkscape:connector-curvature="0"
     style="fill:#007cc3" />
  <path
     style="fill:none;stroke:#000000;stroke-width:1px;stroke-linecap:butt;stroke-linejoin:miter;stroke-opacity:1"
     d="M 21263.566,5181.6105 H 8314.4129 L 1711.9579,3412.4881"
     id="path1480"
     inkscape:connector-curvature="0" />
</svg>
