<?xml version="1.0" encoding="UTF-8" standalone="no"?>
<svg
   xmlns:dc="http://purl.org/dc/elements/1.1/"
   xmlns:cc="http://creativecommons.org/ns#"
   xmlns:rdf="http://www.w3.org/1999/02/22-rdf-syntax-ns#"
   xmlns:svg="http://www.w3.org/2000/svg"
   xmlns="http://www.w3.org/2000/svg"
   xmlns:sodipodi="http://sodipodi.sourceforge.net/DTD/sodipodi-0.dtd"
   xmlns:inkscape="http://www.inkscape.org/namespaces/inkscape"
   viewBox="0 0 10984.481 10984.481"
   version="1.1"
   id="svg18"
   sodipodi:docname="sausage.svg"
   width="1040"
   height="1040"
   inkscape:version="0.92.1 15371">
  <metadata
     id="metadata24">
    <rdf:RDF>
      <cc:Work
         rdf:about="">
        <dc:format>image/svg+xml</dc:format>
        <dc:type
           rdf:resource="http://purl.org/dc/dcmitype/StillImage" />
        <dc:title></dc:title>
      </cc:Work>
    </rdf:RDF>
  </metadata>
  <defs
     id="defs22" />
  <sodipodi:namedview
     pagecolor="#ffffff"
     bordercolor="#666666"
     borderopacity="1"
     objecttolerance="10"
     gridtolerance="10"
     guidetolerance="10"
     inkscape:pageopacity="0"
     inkscape:pageshadow="2"
     inkscape:window-width="1301"
     inkscape:window-height="744"
     id="namedview20"
     showgrid="false"
     fit-margin-top="0"
     fit-margin-left="0"
     fit-margin-right="0"
     fit-margin-bottom="0"
     inkscape:zoom="0.5599414"
     inkscape:cx="745.96882"
     inkscape:cy="520"
     inkscape:window-x="65"
     inkscape:window-y="24"
     inkscape:window-maximized="1"
     inkscape:current-layer="svg18" />
  <path
     style="fill:#1f1a17;stroke:#ffffff;stroke-width:422.4800415;stroke-miterlimit:4;stroke-dasharray:none;stroke-opacity:1"
     inkscape:connector-curvature="0"
     d="m 2323.24,211.24002 h 6338.0001 l 108,3 107,8 105,13 104,19 102,24.0005 100,28 98,34 96,38 93,42 91,47 89,51 86,55 82,59 80.0009,63 77,66 73,71 71,73 66,77 63,79.99998 59,82 55,86 51,89 47,91 42,93.0001 38,96 34,98 28,100 24,102 19,104 13,105 8,107 3,108.0001 v 6338 l -3,108 -8,107 -13,105 -19,104 -24,102 -28,100 -34,98 -38,96 -42,94 -47,91 -51,88 -55,86 -59,83 -63,80.0003 -66,76 -71,74 -73,70 -77,66 -80.0009,63 -82,59 -86,55 -89,51 -91,47 -93,43 -96,38 -98,33 -100,28 -102,24 -104,19 -105,13 -107,8 -108,3 H 2323.24 l -108,-3 -107,-8 -105,-13 -104,-19 -102,-24 -100,-28 -98,-33 -96,-38 -93,-43 -91,-47 -89,-51 -86,-55 -82,-59 -79.99998,-63 -77,-66 -73,-70 -71,-74 -66,-76 -63,-80.0003 -59,-83 -55,-86 -51,-88 -47,-91 -42,-94 -38,-96 -34,-98 -28,-100 -24,-102 -19,-104 -13,-105 -8,-107 -3,-108 v -6338 l 3,-108.0001 8,-107 13,-105 19,-104 24,-102 28,-100 34,-98 38,-96 42,-93.0001 47,-91 51,-89 55,-86 59,-82 63,-79.99998 66,-77 71,-73 73,-71 77,-66 79.99998,-63 82,-59 86,-55 89,-51 91,-47 93,-42 96,-38 98,-34 100,-28 102,-24.0005 104,-19 105,-13 107,-8 z"
     id="path927" />
  <path
     style="fill:#e7785f"
     inkscape:connector-curvature="0"
     d="m 4416.24,4236.2407 h -1345 l -83,1 -80,5 -78,7 -76,9 -73,12 -71,15 -68,17 -67,19 -63,22 -62,23 -59,26 -57,28 -55,30 -52,31 -50,33 -48,35 -45,37 -43,38 -41,40 -38,40 -36,43 -34,43 -31,45 -30,45 -26,47 -25,47 -22,48 -20,49 -18,50 -15,50 -13,51 -10,51 -502,-203 v 844 l 505,-194 11,51 14,50 16,50 18,49 21,49 22,48 25,47 28,46 29,45 32,45 34,43 36,41 39,41 41,39 43,38 45,36 48,35 50,33 52,31 54,29 57,28 59,25 61,24 63,21 66,19 68,17 70,14 72,12 75,10 76,7 79,4 82,1 h 1343 l -24,-39 -23,-39 -22,-40 -22,-39 -21,-40 -20,-39 -19,-39 -18,-40 -37,-13 -36,-14 -36,-16 -34,-17 -34,-18 -34,-20 -32,-21 -32,-22 -30,-23 -30,-24 -29,-26 -27,-26 -27,-28 -26,-28 -24,-29 -46,-62 -21,-32 -19,-33 -19,-34 -17,-34 -16,-35 -15,-36 -13,-37 -12,-37 -10,-38 -9,-38 -7,-39 -6,-40 -4,-40 -2,-40 -1,-41 1,-41 2,-41 5,-41 6,-40 7,-39 9,-39 11,-39 12,-37 13,-37 15,-37 34,-70 19,-34 21,-34 21,-32 23,-31 24,-31 25,-30 54,-56 58,-52 31,-24 31,-23 32,-22 33,-21 35,-19 34,-18 36,-17 37,-15 37,-14 38,-13 16,-38 36,-78 19,-38 19,-39 20,-39 21,-38 z m 3528.0001,2512 v -14 l -58.0001,-15 -56,-18 -55,-19 -53,-21 -51,-23 -50,-25 -49,-27 -47,-28 -45,-30 -43,-32 -42,-33 -40,-35 -38,-36 -37,-37 -35,-39 -33,-40 -31,-42 -29,-42 -28,-44 -25,-45 -24,-46 -22,-47 -19,-48 -18,-49 -16,-50 -14,-51 -11,-52 -10,-52 -8,-53 -5,-54 -3,-54 -1,-55 1,-55 3,-54 5,-54 8,-53 10,-52 11,-52 14,-51 16,-50 18,-49 19,-48 22,-47 24,-46 25,-45 28,-44 29,-42 31,-42 33,-40 35,-39 37,-37 38,-36 40,-35 42,-33 43,-31 45,-30 47,-29 49,-26 50,-25 51,-23 53,-22 55,-19 56,-17 58.0001,-16 v -14 H 5234.24 l -27,48 -27,49 -26,48 -25,48 -24,48 -46,96 -21,48 29,16 28,17 28,18 27,19 26,20 26,21 25,21 24,22 24,23 22,24 44,50 20,26 19,26 19,27 18,28 16,28 16,29 15,30 14,30 13,31 12,31 11,31 10,32 16,66 6,33 6,34 4,34 3,34 2,35 1,35 -1,36 -2,36 -3,35 -5,36 -5,34 -7,34 -8,34 -10,34 -10,33 -24,64 -14,31 -15,31 -15,30 -17,30 -18,29 -38,56 -21,27 -21,26 -23,26 -23,24 -24,24 -24,23 -26,23 -26,21 -27,21 -56,38 -30,18 -29,16 -31,16 23,47 25,46 25,47 27,46 29,46 30,46 31,46 33,46 z"
     id="path929" />
  <path
     style="fill:#f8c300"
     inkscape:connector-curvature="0"
     d="m 3959.24,5492.2407 1,-31 2,-30 4,-29 5,-30 7,-29 8,-28 10,-28 10,-27 26,-52 14,-25 16,-24 17,-23 18,-23 19,-21 20,-21 21,-20 21,-19 23,-17 24,-17 24,-16 25,-14 26,-13 27,-12 27,-11 28,-9 29,-8 29,-7 29,-5 30,-4 31,-2 31,-1 31,1 30,2 30,4 30,5 29,7 28,8 28,9 28,11 26,12 26,13 25,14 25,16 46,34 22,19 21,20 20,21 19,21 18,23 16,23 16,24 15,25 13,26 12,26 11,27 9,28 8,28 7,29 6,30 3,29 3,30 v 62 l -6,60 -6,29 -7,29 -8,28 -9,28 -11,27 -12,26 -13,26 -15,25 -32,48 -18,22 -19,22 -20,20 -21,20 -22,19 -23,18 -23,16 -25,16 -25,14 -26,13 -26,12 -28,11 -56,18 -29,6 -30,5 -30,4 -30,3 h -62 l -31,-3 -30,-4 -29,-5 -29,-6 -29,-9 -28,-9 -27,-11 -27,-12 -26,-13 -25,-14 -48,-32 -23,-18 -21,-19 -21,-20 -20,-20 -19,-22 -18,-22 -17,-24 -16,-24 -14,-25 -26,-52 -10,-27 -10,-28 -8,-28 -7,-29 -5,-29 -4,-30 -2,-30 z"
     id="path931" />
  <path
     style="fill:#ca5063"
     inkscape:connector-curvature="0"
     d="m 9904.2401,5492.2407 -1,60 -6,58 -8,58 -12,57 -15,57 -18,55 -21,53 -24,53 -27,52 -29,50 -33,48 -35,47 -37,46 -40,44 -42,42 -44,40 -47,39 -48,36 -51,35 -52,32 -54,30 -56,28 -58,26 -59,23 -61,21 -62,18 -63,16 -65,13 -66,10 -67,8 -67,4 -69,2 -69,-2 -67,-4 -67,-8 -66,-10 -65,-13 -63,-16 -62,-18 -61,-21 -59,-23 -58,-26 -56.0001,-28 -54,-30 -52,-32 -51,-35 -48,-36 -47,-39 -44,-40 -42,-42 -40,-44 -37,-46 -35,-47 -33,-48 -29,-50 -27,-52 -24,-53 -21,-53 -18,-55 -15,-57 -12,-57 -8,-58 -6,-58 -1,-60 1,-59 6,-59 8,-58 12,-57 15,-56 18,-55 21,-54 24,-53 27,-51 29,-50 33,-49 35,-47 37,-45 40,-44 42,-42 44,-41 47,-38 48,-37 51,-34 52,-33 54,-30 56.0001,-28 58,-26 59,-23 61,-21 62,-18 63,-16 65,-13 66,-10 67,-7 67,-5 69,-1 69,1 67,5 67,7 66,10 65,13 63,16 62,18 61,21 59,23 58,26 56,28 54,30 52,33 51,34 48,37 47,38 44,41 42,42 40,44 37,45 35,47 33,49 29,50 27,51 24,53 21,54 18,55 15,56 12,57 8,58 6,59 z"
     id="path933" />
  <path
     style="fill:#ffffff"
     inkscape:connector-curvature="0"
     d="m 8266.2401,5598.2407 1,-24 3,-23 5,-23 6,-22 8,-21 10,-19 11,-19 12,-17 13,-15 15,-14 16,-12 16,-10 18,-8 18,-6 9,-2 10,-1 9,-1 10,-1 10,1 9,1 10,1 9,2 18,6 18,8 16,10 16,12 14,14 14,15 12,17 11,19 10,19 8,21 6,22 5,23 3,23 1,24 -1,25 -3,23 -5,23 -6,22 -8,21 -10,19 -11,19 -12,17 -14,15 -14,14 -16,12 -16,10 -18,8 -18,6 -9,2 -10,1 -9,1 -10,1 -10,-1 -9,-1 -10,-1 -9,-2 -18,-6 -18,-8 -16,-10 -16,-12 -15,-14 -13,-15 -12,-17 -11,-19 -10,-19 -8,-21 -6,-22 -5,-23 -3,-23 z"
     id="path937" />
  <path
     style="fill:#ffffff"
     inkscape:connector-curvature="0"
     d="m 9236.2401,5611.2407 1,-25 2,-23 5,-23 6,-22 8,-21 10,-19 11,-19 12,-17 14,-15 14,-14 16,-12 16,-10 18,-8 18,-6 9,-2 10,-1 9,-1 h 20 l 10,1 9,1 9,2 18,6 18,8 16,10 16,12 15,14 13,15 12,17 11,19 10,19 8,21 6,22 5,23 3,23 1,25 -1,24 -3,23 -5,23 -6,22 -8,21 -10,20 -11,18 -12,17 -13,15 -15,14 -16,12 -16,10 -18,8 -18,6 -9,2 -9,1 -20,2 -10,-1 -9,-1 -10,-1 -9,-2 -18,-6 -18,-8 -16,-10 -16,-12 -14,-14 -14,-15 -12,-17 -11,-18 -10,-20 -8,-21 -6,-22 -5,-23 -2,-23 z"
     id="path939" />
  <path
     style="fill:#ffffff"
     inkscape:connector-curvature="0"
     d="m 8688.2401,6104.2407 v -17 l 1,-17 4,-32 3,-16 4,-16 4,-15 10,-30 12,-28 14,-26 8,-13 8,-12 18,-22 10,-11 10,-10 10,-9 33,-24 24,-12 24,-10 13,-4 13,-3 13,-2 14,-1 h 27 l 13,1 13,2 13,3 13,4 12,5 13,5 11,6 12,6 11,8 12,8 10,8 11,9 9,10 10,11 18,22 8,12 8,13 14,26 7,14 5,14 6,15 4,15 5,15 6,32 4,32 2,34 -2,34 -2,16 -2,17 -3,16 -3,15 -5,16 -4,15 -6,14 -5,14 -14,28 -7,13 -16,24 -9,12 -9,11 -10,10 -9,10 -11,9 -10,9 -12,8 -11,7 -12,7 -11,6 -13,5 -12,4 -13,4 -13,3 -13,2 -13,1 -14,1 -13,-1 -14,-1 -13,-2 -13,-3 -13,-4 -12,-4 -12,-5 -12,-6 -12,-7 -11,-7 -11,-8 -11,-9 -10,-9 -20,-20 -9,-11 -9,-12 -16,-24 -7,-13 -7,-14 -12,-28 -5,-14 -5,-15 -4,-16 -4,-15 -3,-16 -2,-17 -2,-16 -1,-17 z"
     id="path941" />
  <path
     style="fill:#ffffff"
     inkscape:connector-curvature="0"
     d="m 8182.2401,4835.2407 v -17 l 1,-17 2,-16 2,-17 3,-16 4,-15 4,-16 5,-15 5,-14 6,-15 6,-13 7,-14 8,-13 7,-12 9,-12 8,-12 10,-11 9,-10 10,-10 10,-9 11,-9 11,-8 11,-7 12,-7 12,-6 12,-5 13,-4 12,-4 13,-3 14,-2 26,-2 14,1 13,1 13,2 13,3 26,8 12,5 12,6 11,7 12,7 11,8 11,9 10,9 10,10 9,10 10,11 8,12 9,12 7,12 8,13 7,14 6,13 6,15 5,14 5,15 4,16 4,15 2,16 3,17 1,16 2,34 -1,17 -1,16 -1,17 -3,16 -2,16 -4,16 -4,15 -10,30 -12,28 -7,13 -8,13 -7,13 -9,12 -8,11 -10,11 -9,11 -10,10 -10,9 -22,16 -12,8 -11,6 -12,6 -12,5 -13,5 -13,4 -13,2 -13,3 -13,1 h -27 l -13,-1 -14,-3 -13,-2 -12,-4 -13,-5 -12,-5 -24,-12 -33,-24 -10,-9 -10,-10 -9,-11 -10,-11 -8,-11 -9,-12 -7,-13 -8,-13 -7,-13 -12,-28 -10,-30 -4,-15 -4,-16 -3,-16 -2,-16 -2,-17 -1,-16 z"
     id="path943" />
  <path
     style="fill:#ffffff"
     inkscape:connector-curvature="0"
     d="m 7740.24,6051.2407 1,-23 2,-22 5,-21 6,-21 7,-20 9,-18 11,-18 11,-16 13,-14 14,-13 14,-11 16,-10 8,-4 9,-3 8,-3 9,-3 8,-2 9.0001,-1 10,-1 9,-1 27,3 9,2 8,3 9,3 8,3 8,4 16,10 15,11 13,13 13,14 12,16 10,18 9,18 8,20 6,21 4,21 3,22 1,23 -1,23 -3,22 -4,22 -6,21 -8,19 -9,19 -10,17 -12,16 -13,15 -13,13 -15,11 -16,9 -16,8 -9,3 -8,2 -18,4 -9,1 h -18 l -10,-1 -9.0001,-2 -8,-2 -9,-2 -8,-3 -9,-4 -16,-8 -8,-5 -7,-6 -7,-5 -14,-13 -13,-15 -11,-16 -11,-17 -9,-19 -7,-19 -6,-21 -5,-22 -2,-22 z"
     id="path945" />
  <path
     style="fill:#ffffff"
     inkscape:connector-curvature="0"
     d="m 9004.2401,4941.2407 v -15 l 2,-28 2,-13 3,-14 6,-26 4,-12 5,-13 5,-12 5,-11 6,-12 6,-10 6,-11 7,-10 8,-10 7,-9 8,-9 9,-8 8,-8 9,-7 10,-7 9,-6 30,-15 22,-6 10,-3 11,-2 12,-1 h 22 l 12,1 11,2 11,3 10,3 11,3 30,15 9,6 10,7 9,7 8,8 9,8 8,9 7,9 8,10 7,10 6,11 6,10 6,12 5,11 5,12 5,13 4,12 6,26 3,14 2,13 2,28 v 29 l -2,28 -2,13 -3,14 -6,26 -4,12 -5,13 -5,12 -5,11 -6,12 -6,11 -6,10 -7,10 -8,10 -7,9 -8,9 -9,8 -8,8 -9,7 -10,7 -9,6 -30,15 -11,3 -10,4 -22,4 -12,1 h -22 l -12,-1 -11,-2 -10,-2 -11,-4 -11,-3 -30,-15 -9,-6 -10,-7 -9,-7 -8,-8 -9,-8 -8,-9 -7,-9 -8,-10 -7,-10 -6,-10 -6,-11 -6,-12 -5,-11 -5,-12 -5,-13 -4,-12 -6,-26 -3,-14 -2,-13 -2,-28 z"
     id="path947" />
  <path
     style="fill:#ffffff"
     inkscape:connector-curvature="0"
     d="m 7529.24,5205.2407 v -16 l 1,-15 4,-30 3,-15 3,-14 8,-28 5,-14 5,-13 6,-12 6,-13 7,-12 7,-11 16,-22 8,-10 9,-10 9,-9 20,-16 20,-14 22,-12 11,-4 24,-8 11,-3 13,-2 12,-1 h 25 l 12,1 12,2 12,3 12,4 22,8 22,12 11,7 10,7 10.0001,8 9,8 9,9 9,10 8,10 16,22 7,11 7,12 6,13 6,12 6,13 4,14 5,14 4,14 3,14 3,15 2,15 2,30 1,16 -1,16 -2,30 -2,15 -3,15 -3,14 -4,14 -5,14 -4,14 -6,13 -6,12 -6,13 -7,12 -7,11 -16,22 -8,10 -9,10 -9,9 -9,8 -10.0001,8 -10,7 -11,7 -22,12 -22,8 -12,4 -12,3 -12,2 -12,1 h -25 l -12,-1 -13,-2 -11,-3 -24,-8 -11,-4 -22,-12 -20,-14 -20,-16 -9,-9 -9,-10 -8,-10 -16,-22 -7,-11 -7,-12 -6,-13 -6,-12 -5,-13 -5,-14 -8,-28 -3,-14 -3,-15 -4,-30 -1,-15 z"
     id="path949" />
  <path
     style="fill:none;stroke:#000000;stroke-width:1px;stroke-linecap:butt;stroke-linejoin:miter;stroke-opacity:1"
     d="M 21620.393,5006.2407 H 8671.2401 L 2068.7851,3237.1183"
     id="path1480"
     inkscape:connector-curvature="0" />
</svg>
